<svg xmlns="http://www.w3.org/2000/svg" width="66" height="40" viewBox="0 0 80 48.3">
  <defs>
    <style>
      .cls-1 {
        fill: #005fff;
      }
    </style>
  </defs>
  <g id="slo 2" data-name="slo 2">
    <g id="slo 1" data-name="slo 1">
      <g>
        <path class="cls-1" d="M78.07,10.78a11.59,11.59,0,0,0-7.3-6.07c-9-2.55-14.64,5.6-18.72,11.56l-.21.29c-1.1,1.62-3.44,4.23-6.54,3.76-3.36-.53-4.62-4.06-5.08-6.12-.13-.62-.24-1.2-.35-1.76a20.45,20.45,0,0,0-1.69-5.66A12.58,12.58,0,0,0,28.88.15a12.35,12.35,0,0,0-10.72,3.5C8.23,13.7.52,38.94.2,40A4.58,4.58,0,0,0,9,42.66C11,36,17.76,17.09,24.67,10.1a3.27,3.27,0,0,1,2.83-.9A3.39,3.39,0,0,1,30.05,11a14.83,14.83,0,0,1,.83,3.2c.12.63.25,1.29.4,2,1.6,7.28,6.31,12.22,12.6,13.21,5.89.94,11.56-1.85,15.52-7.62l.2-.3c3.6-5.25,6.15-8.65,8.68-7.92A2.42,2.42,0,0,1,69.91,15c2.45,4.78-.26,17.39-3,24.94l-.79,2.38a4.58,4.58,0,0,0,8.69,2.9l.75-2.26C76.36,40.7,83.29,21,78.07,10.78Z"/>
        <path class="cls-1" d="M19.63,34a4.55,4.55,0,0,0-2,6.08,4.6,4.6,0,0,0,6.09,2.13c.42-.19,2.62-1.11,3.85.35a4.58,4.58,0,1,0,7-5.91C29.79,31,22.71,32.45,19.63,34Z"/>
        <path class="cls-1" d="M44.44,37a4.58,4.58,0,1,0,3.82,8.32s2.53-1.1,3.79.51a4.57,4.57,0,0,0,6.43.78,4.58,4.58,0,0,0,.78-6.43C54.7,34.38,47.58,35.57,44.44,37Z"/>
      </g>
    </g>
  </g>
</svg>
