<?xml version="1.0" standalone="no"?>
<!DOCTYPE svg PUBLIC "-//W3C//DTD SVG 20010904//EN"
 "http://www.w3.org/TR/2001/REC-SVG-20010904/DTD/svg10.dtd">
<svg version="1.0" xmlns="http://www.w3.org/2000/svg"
 width="1056.000000pt" height="1056.000000pt" viewBox="0 0 1056.000000 1056.000000"
 preserveAspectRatio="xMidYMid meet">
<metadata>
Created by potrace 1.14, written by Peter Selinger 2001-2017
</metadata>
<g transform="translate(0.000000,1056.000000) scale(0.100000,-0.100000)"
fill="#000000" stroke="none">
<path d="M3407 8464 c-2 -3 -26 -7 -53 -9 -194 -19 -438 -102 -634 -216 -46
-27 -199 -138 -236 -171 -109 -99 -292 -301 -389 -428 -27 -36 -52 -67 -55
-70 -11 -10 -176 -246 -230 -330 -30 -47 -61 -91 -67 -98 -7 -7 -13 -19 -13
-27 0 -7 -4 -15 -8 -17 -27 -11 -446 -756 -441 -784 0 -4 -3 -10 -8 -13 -12
-7 -191 -374 -273 -556 -12 -27 -40 -88 -61 -133 -22 -46 -39 -86 -39 -88 0
-2 -14 -34 -31 -71 -17 -38 -47 -106 -66 -153 -19 -47 -41 -98 -49 -115 -7
-16 -34 -81 -59 -143 -25 -61 -51 -124 -57 -140 -6 -15 -12 -29 -13 -32 -1 -3
-7 -18 -14 -35 -6 -16 -30 -77 -53 -135 -22 -58 -43 -109 -46 -115 -4 -5 -7
-14 -8 -20 -2 -8 -100 -274 -121 -325 -3 -8 -7 -19 -9 -25 -1 -5 -31 -91 -67
-190 -67 -186 -168 -481 -171 -500 -1 -5 -4 -14 -7 -20 -7 -12 -32 -84 -35
-102 -2 -14 -32 -110 -41 -133 -4 -8 -7 -17 -8 -20 -1 -3 -7 -23 -14 -45 -21
-67 -26 -106 -26 -195 0 -229 115 -421 319 -533 91 -50 183 -71 301 -69 78 2
94 4 113 15 6 5 12 6 12 3 0 -10 113 34 167 65 57 33 173 138 173 158 0 6 4
11 8 11 21 0 121 243 146 355 1 6 19 62 40 125 21 63 39 120 41 125 2 10 7 25
28 80 7 17 12 32 12 35 2 9 16 55 25 75 4 11 29 81 55 155 75 211 189 518 268
715 39 99 70 183 69 188 -1 4 3 7 8 7 6 0 10 6 10 13 0 7 16 51 36 97 20 47
41 96 46 110 6 14 12 30 14 35 5 19 124 290 191 435 19 41 42 91 50 110 30 68
283 576 326 655 66 123 102 187 125 225 12 19 26 44 32 55 5 11 21 38 35 60
13 22 32 54 41 70 57 102 264 402 359 520 189 233 264 298 382 335 76 23 199
21 268 -5 99 -37 174 -92 228 -165 35 -48 96 -219 111 -317 2 -11 7 -29 10
-40 5 -19 15 -69 21 -113 11 -77 76 -368 104 -465 39 -134 53 -173 90 -257 12
-26 21 -50 21 -52 0 -3 14 -34 30 -69 17 -36 30 -70 30 -75 0 -6 3 -12 8 -14
4 -1 20 -28 36 -58 40 -77 149 -242 209 -320 79 -101 262 -279 369 -358 53
-40 101 -72 107 -72 6 0 11 -3 11 -8 0 -4 17 -16 38 -27 20 -11 64 -35 97 -54
33 -18 65 -34 70 -36 6 -1 32 -12 59 -24 99 -44 243 -88 381 -115 22 -5 92
-15 145 -22 87 -11 338 -10 428 2 99 14 114 17 192 33 63 13 235 69 298 97 28
12 52 20 52 16 0 -4 4 -2 8 3 4 6 48 30 97 55 80 40 285 170 325 206 8 7 51
44 95 81 99 85 228 215 298 303 99 124 122 154 152 200 17 25 33 47 36 50 3 3
14 20 24 38 11 17 23 32 27 32 4 0 8 6 8 13 0 7 8 22 18 33 28 33 62 83 62 93
0 5 4 11 8 13 4 2 36 43 71 92 35 49 67 94 72 100 5 6 36 47 69 91 33 44 68
90 77 101 10 12 32 39 48 59 61 75 252 263 305 300 30 21 84 52 120 69 57 27
75 31 150 31 71 -1 95 -5 142 -27 139 -65 226 -234 269 -528 26 -182 29 -514
5 -735 -2 -22 -7 -76 -11 -119 -4 -43 -8 -86 -10 -95 -1 -9 -6 -38 -9 -66 -4
-27 -9 -61 -11 -75 -2 -14 -9 -61 -15 -105 -7 -44 -14 -89 -16 -100 -2 -11 -7
-36 -10 -55 -10 -54 -21 -110 -29 -150 -3 -14 -8 -41 -11 -60 -11 -58 -12 -62
-34 -160 -12 -52 -24 -104 -26 -115 -3 -16 -31 -133 -59 -245 -2 -8 -20 -73
-40 -145 -20 -71 -37 -137 -40 -145 -2 -8 -4 -15 -5 -15 -1 0 -3 -7 -5 -15 -2
-8 -18 -62 -35 -120 -18 -58 -33 -111 -33 -117 0 -7 -4 -13 -9 -13 -4 0 -8 -8
-8 -18 0 -9 -16 -62 -36 -117 -69 -196 -165 -491 -175 -540 -23 -113 -6 -261
43 -365 52 -113 155 -223 255 -275 32 -16 61 -34 64 -38 3 -5 8 -8 10 -6 2 1
33 -5 69 -15 212 -56 420 3 580 164 70 71 140 182 140 222 0 8 3 18 7 22 5 4
8 11 9 14 0 4 3 14 7 22 3 8 38 114 78 235 40 121 76 226 82 233 5 6 7 12 3
12 -3 0 1 17 8 38 16 40 107 337 110 356 1 6 4 16 8 21 3 6 10 28 14 50 10 48
9 46 17 65 7 18 47 163 52 191 2 12 7 29 10 39 3 10 8 27 10 37 2 10 17 77 34
148 18 72 34 141 37 155 3 14 8 33 10 43 17 73 73 356 79 402 4 22 8 47 10 55
3 8 7 35 10 60 3 25 8 56 11 70 3 14 7 41 9 60 2 19 7 51 10 70 9 56 14 92 18
140 3 25 8 70 11 100 26 234 31 322 30 610 0 316 -8 448 -40 625 -3 17 -7 44
-9 60 -2 17 -4 30 -5 30 -1 0 -4 14 -6 30 -3 17 -14 66 -26 110 -11 44 -21 85
-23 90 -1 6 -5 18 -9 27 -4 9 -9 25 -11 35 -2 10 -4 18 -5 18 -1 0 -3 7 -5 15
-24 110 -216 481 -257 498 -4 2 -8 9 -8 15 -1 19 -134 163 -213 230 -77 66
-110 92 -175 133 -76 49 -211 118 -272 139 -3 1 -18 7 -35 14 -62 26 -209 64
-313 80 -107 18 -353 21 -447 7 -308 -49 -619 -204 -900 -448 -68 -59 -292
-285 -334 -338 -19 -23 -40 -48 -46 -54 -68 -69 -465 -603 -465 -625 0 -5 -3
-11 -7 -13 -5 -1 -24 -25 -42 -53 -19 -27 -37 -52 -41 -55 -3 -3 -11 -17 -19
-33 -8 -15 -27 -39 -42 -55 -16 -15 -29 -32 -29 -37 0 -14 -170 -186 -218
-222 -20 -16 -39 -30 -42 -33 -23 -26 -164 -97 -250 -126 -87 -29 -283 -27
-375 5 -140 48 -242 122 -345 248 -59 73 -167 291 -186 376 -1 4 -2 8 -4 10
-1 1 -3 9 -5 17 -2 8 -13 49 -24 90 -11 41 -23 91 -26 110 -3 19 -8 42 -10 50
-2 8 -7 31 -10 50 -3 19 -10 58 -15 85 -5 28 -12 64 -15 80 -13 75 -18 97 -45
202 -84 317 -220 595 -373 761 -168 182 -295 283 -480 382 -89 47 -230 108
-268 115 -11 2 -24 7 -29 10 -6 4 -23 9 -38 11 -15 3 -44 10 -66 15 -62 17
-190 37 -198 32 -5 -2 -8 -1 -8 4 0 8 -325 15 -333 7z"/>
<path d="M3275 4162 c-2 -2 -21 -5 -42 -7 -99 -9 -158 -17 -164 -21 -4 -2 -26
-7 -48 -10 -22 -3 -84 -19 -138 -35 -54 -16 -105 -31 -113 -33 -53 -15 -218
-92 -238 -113 -7 -7 -17 -13 -21 -13 -10 0 -93 -80 -123 -120 -38 -51 -84
-141 -93 -180 -4 -19 -10 -39 -13 -45 -10 -15 -12 -33 -16 -121 -3 -88 18
-194 54 -269 11 -23 20 -46 20 -52 0 -6 7 -13 15 -17 8 -3 15 -12 15 -19 0
-21 114 -134 173 -171 63 -39 140 -72 187 -80 19 -3 49 -9 65 -12 33 -7 141
-6 165 1 8 2 31 7 50 10 31 5 132 41 185 66 37 17 150 35 205 32 67 -3 87 -6
123 -21 16 -7 31 -12 35 -12 4 0 48 -40 99 -88 139 -134 271 -194 433 -195
107 -1 190 18 284 65 73 37 76 39 158 121 84 84 129 168 165 307 11 42 5 201
-10 257 -17 66 -56 156 -69 161 -4 2 -8 8 -8 14 0 25 -155 191 -245 263 -27
22 -52 42 -55 45 -13 13 -79 60 -85 60 -4 0 -19 9 -34 19 -37 27 -200 108
-231 116 -3 0 -35 11 -71 23 -36 12 -74 24 -85 26 -10 2 -53 11 -96 20 -42 9
-107 18 -145 22 -77 7 -283 11 -288 6z"/>
<path d="M6468 3735 c-2 -2 -25 -5 -53 -8 -103 -11 -135 -17 -241 -41 -144
-34 -372 -118 -394 -146 -3 -3 -21 -17 -40 -30 -96 -66 -193 -210 -223 -330
-72 -287 58 -570 321 -696 41 -20 84 -37 96 -39 11 -2 35 -7 51 -12 39 -13
197 -9 256 5 25 6 68 21 95 33 151 66 298 80 407 39 47 -18 74 -38 135 -102
107 -112 223 -185 318 -202 16 -3 49 -9 74 -14 46 -8 148 -7 185 2 11 3 25 6
30 7 41 6 166 62 193 87 7 6 17 12 22 12 4 0 35 27 69 61 83 84 150 205 169
304 10 54 10 214 1 250 -6 22 -12 45 -13 50 -2 9 -17 44 -49 118 -6 15 -15 27
-19 27 -5 0 -8 7 -8 15 0 8 -4 15 -10 15 -5 0 -10 4 -10 10 0 14 -32 51 -136
154 -105 105 -141 135 -244 201 -119 77 -312 160 -430 186 -19 4 -44 9 -55 12
-18 4 -59 12 -135 24 -29 5 -357 12 -362 8z"/>
</g>
</svg>
