<svg width="24" height="24" viewBox="0 0 24 24" fill="none" xmlns="http://www.w3.org/2000/svg">
<path fill-rule="evenodd" clip-rule="evenodd" d="M12 2C6.47715 2 2 6.47715 2 12C2 17.5228 6.47715 22 12 22C17.5228 22 22 17.5228 22 12C22 6.47715 17.5228 2 12 2ZM4 12C4 7.58172 7.58172 4 12 4C16.4183 4 20 7.58172 20 12C20 16.4183 16.4183 20 12 20C7.58172 20 4 16.4183 4 12Z" fill="black"/>
<path fill-rule="evenodd" clip-rule="evenodd" d="M12 2C6.47715 2 2 6.47715 2 12C2 17.5228 6.47715 22 12 22C17.5228 22 22 17.5228 22 12C22 6.47715 17.5228 2 12 2ZM4 12C4 7.58172 7.58172 4 12 4C16.4183 4 20 7.58172 20 12C20 16.4183 16.4183 20 12 20C7.58172 20 4 16.4183 4 12Z" fill="black"/>
<path d="M13 7C13 6.44772 12.5523 6 12 6V6V6C11.4477 6 11 6.44772 11 7V13H13V7Z" fill="black"/>
<path d="M14.4902 16.5C14.8807 16.8905 15.5139 16.8905 15.9044 16.5V16.5V16.5C16.2949 16.1095 16.2949 15.4763 15.9044 15.0858L12.4148 11.596L11.0005 13.0103L14.4902 16.5Z" fill="black"/>
</svg>
