<svg width="24" height="24" viewBox="0 0 24 24" fill="none" xmlns="http://www.w3.org/2000/svg">
<path fill-rule="evenodd" clip-rule="evenodd" d="M4.29289 8.70711C4.19678 8.611 4.12433 8.5002 4.07553 8.38193C4.02686 8.26426 4 8.13526 4 8C4 7.86526 4.02665 7.73675 4.07496 7.61944M4.29289 8.70711L7.29289 11.7071C7.68342 12.0976 8.31658 12.0976 8.70711 11.7071C9.09763 11.3166 9.09763 10.6834 8.70711 10.2929L7.43396 9.01975C9.93687 9.06559 11.4719 9.19269 12.546 9.41648C13.8276 9.68348 14.4412 10.0821 15.3697 10.7773C16.3237 11.6145 17.2079 12.5147 17.8676 13.7518C18.53 14.9937 19 16.6405 19 19C19 19.5523 19.4477 20 20 20C20.5523 20 21 19.5523 21 19C21 16.3595 20.47 14.3813 19.6324 12.8107C18.7986 11.2474 17.6937 10.1532 16.6585 9.24742C16.6396 9.23089 16.6201 9.21507 16.6 9.2C15.5456 8.40922 14.6585 7.81363 12.954 7.45852C11.6931 7.19585 9.98513 7.06379 7.39567 7.01855L8.70711 5.70711C9.09763 5.31658 9.09763 4.68342 8.70711 4.29289C8.31658 3.90237 7.68342 3.90237 7.29289 4.29289L4.29289 7.29289C4.19678 7.389 4.12433 7.4998 4.07553 7.61807" fill="black"/>
</svg>
