<svg width="24" height="24" viewBox="0 0 24 24" fill="none" xmlns="http://www.w3.org/2000/svg">
<path fill-rule="evenodd" clip-rule="evenodd" d="M14.1216 8.46446C14.5121 8.07394 15.1453 8.07394 15.5358 8.46446C15.9264 8.85499 15.9264 9.48815 15.5358 9.87868L13.4145 12L15.5358 14.1213C15.9264 14.5118 15.9264 15.145 15.5358 15.5355C15.1453 15.9261 14.5121 15.9261 14.1216 15.5355L12.0003 13.4142L9.87898 15.5355C9.48846 15.9261 8.85529 15.9261 8.46477 15.5355C8.07424 15.145 8.07424 14.5118 8.46477 14.1213L10.5861 12L8.46477 9.87868C8.07424 9.48815 8.07424 8.85499 8.46477 8.46446C8.85529 8.07394 9.48846 8.07394 9.87898 8.46446L12.0003 10.5858L14.1216 8.46446Z" fill="black"/>
<path fill-rule="evenodd" clip-rule="evenodd" d="M12 2C6.47715 2 2 6.47715 2 12C2 17.5228 6.47715 22 12 22C17.5228 22 22 17.5228 22 12C22 6.47715 17.5228 2 12 2ZM4 12C4 7.58172 7.58172 4 12 4C16.4183 4 20 7.58172 20 12C20 16.4183 16.4183 20 12 20C7.58172 20 4 16.4183 4 12Z" fill="black"/>
</svg>
