<svg width="24" height="24" viewBox="0 0 24 24" fill="none" xmlns="http://www.w3.org/2000/svg">
<path fill-rule="evenodd" clip-rule="evenodd" d="M12 6C9.81051 6 7.94727 7.40792 7.27116 9.37076C7.14805 9.72817 6.83392 9.98561 6.45928 10.0361C4.50624 10.2994 3 11.9746 3 14C3 16.2091 4.79086 18 7 18C7.55229 18 8 18.4477 8 19C8 19.5523 7.55229 20 7 20C3.68629 20 1 17.3137 1 14C1 11.1686 2.96041 8.79651 5.59824 8.16485C6.68595 5.71241 9.14187 4 12 4C15.5571 4 18.4944 6.65314 18.9412 10.0884C21.2527 10.5287 23 12.5603 23 15C23 17.7614 20.7614 20 18 20C17.4477 20 17 19.5523 17 19C17 18.4477 17.4477 18 18 18C19.6569 18 21 16.6569 21 15C21 13.3431 19.6569 12 18 12C17.4477 12 17 11.5523 17 11C17 8.23858 14.7614 6 12 6Z" fill="black"/>
<path fill-rule="evenodd" clip-rule="evenodd" d="M12 12C11.4477 12 11 12.4477 11 13V19C11 19.5523 11.4477 20 12 20C12.5523 20 13 19.5523 13 19V13C13 12.4477 12.5523 12 12 12Z" fill="black"/>
<path fill-rule="evenodd" clip-rule="evenodd" d="M9.29289 16.2929C8.90237 16.6834 8.90237 17.3166 9.29289 17.7071L11.2929 19.7071C11.6834 20.0976 12.3166 20.0976 12.7071 19.7071C13.0976 19.3166 13.0976 18.6834 12.7071 18.2929L10.7071 16.2929C10.3166 15.9024 9.68342 15.9024 9.29289 16.2929Z" fill="black"/>
<path fill-rule="evenodd" clip-rule="evenodd" d="M11.2929 19.7071C11.6834 20.0976 12.3166 20.0976 12.7071 19.7071L14.7071 17.7071C15.0976 17.3166 15.0976 16.6834 14.7071 16.2929C14.3166 15.9024 13.6834 15.9024 13.2929 16.2929L11.2929 18.2929C10.9024 18.6834 10.9024 19.3166 11.2929 19.7071Z" fill="black"/>
</svg>
