<svg width="24" height="24" viewBox="0 0 24 24" fill="none" xmlns="http://www.w3.org/2000/svg">
<g clip-path="url(#clip0_239_1083)">
<path d="M4.8331 16.5263V21H3V4H20.541C20.6213 3.99987 20.7002 4.02035 20.7699 4.0594C20.8396 4.09844 20.8975 4.15468 20.9379 4.22247C20.9783 4.29026 20.9997 4.36722 21 4.44563C21.0003 4.52405 20.9795 4.60117 20.9397 4.66926L17.6648 10.2632L20.9397 15.8571C20.9795 15.9251 21.0003 16.0023 21 16.0807C20.9997 16.1591 20.9783 16.2361 20.9379 16.3039C20.8975 16.3716 20.8396 16.4279 20.7699 16.4669C20.7002 16.506 20.6213 16.5264 20.541 16.5263H4.8331ZM4.8331 5.78947V14.7368H18.1726L15.5531 10.2632L18.1726 5.78947H4.8331Z" fill="black"/>
</g>
<defs>
<clipPath id="clip0_239_1083">
<rect width="24" height="24" fill="white"/>
</clipPath>
</defs>
</svg>
