<svg width="24" height="24" viewBox="0 0 24 24" fill="none" xmlns="http://www.w3.org/2000/svg">
<path fill-rule="evenodd" clip-rule="evenodd" d="M4.99999 4C3.34314 4 2 5.10645 2 7V16.5714C2 18.465 3.34314 20 4.99999 20H19C20.6535 20 21.9946 18.4711 21.9999 16.5828C22 16.5754 22 16.568 22 16.5607V7.42857C22 5.53502 20.6568 4 19 4H4.99999ZM20 13.4147V7C20 6.36882 19.5522 6 19 6H5C4.44772 6 4 6.36882 4 7V14.9552L7.2929 11.1918C7.64479 10.7897 8.20188 10.7444 8.6 11.0857L11.8246 13.8496L15.2191 9.00032C15.4067 8.73234 15.6897 8.57488 15.99 8.57145C16.2903 8.56802 16.576 8.71898 16.7682 8.98261L20 13.4147ZM4.50006 17.5614C4.5 17.7 4.81788 18 5 18H19C19.4459 18 19.871 17.4606 20 17L16.0158 11.5211L12.7809 16.1425C12.4434 16.6245 11.8321 16.7132 11.4 16.3428L8.09384 13.509L4.70712 17.3795C4.64379 17.4519 4.57408 17.5125 4.50006 17.5614Z" fill="black"/>
</svg>
