<svg width="24" height="24" viewBox="0 0 24 24" fill="none" xmlns="http://www.w3.org/2000/svg">
<path fill-rule="evenodd" clip-rule="evenodd" d="M5.889 16H2C1.44771 16 1 15.5523 1 15V8.99997C1 8.44769 1.44771 7.99997 2 7.99997H5.889L11.183 3.66797C11.3965 3.4929 11.7116 3.52409 11.8867 3.73764C11.96 3.82712 12.0001 3.93927 12 4.05498V19.945V19.945C12.0002 20.2212 11.7764 20.4451 11.5003 20.4453C11.3846 20.4454 11.2724 20.4053 11.183 20.332L5.89 16L5.889 16ZM10 7.21997L6.603 9.99997H3V14H6.603L10 16.78V7.21997ZM23.95 15.536L20.414 12L23.95 8.46397L22.536 7.04997L19 10.586L15.464 7.04997L14.05 8.46397L17.586 12L14.05 15.536L15.464 16.95L19 13.414L22.536 16.95L23.95 15.536Z" fill="black"/>
</svg>
