<svg width="24" height="24" viewBox="0 0 24 24" fill="none" xmlns="http://www.w3.org/2000/svg">
<g clip-path="url(#clip0_227_1994)">
<path d="M3.33982 17H3.33982C2.91709 16.269 2.58848 15.4875 2.36182 14.674V14.674C3.83863 13.9229 4.42692 12.1168 3.6758 10.64C3.38826 10.0746 2.92894 9.61496 2.36382 9.327C2.81585 7.69249 3.67655 6.19995 4.86482 4.99C6.25391 5.8931 8.1121 5.49913 9.0152 4.11004C9.36115 3.57792 9.52942 2.9498 9.49582 2.31601V2.31601C11.1379 1.89163 12.861 1.89232 14.5028 2.31801V2.31801C14.4159 3.97258 15.6867 5.38436 17.3413 5.4713C17.975 5.5046 18.6029 5.33609 19.1348 4.99C19.7138 5.58 20.2278 6.251 20.6598 7C21.0928 7.749 21.4168 8.53 21.6378 9.326C20.161 10.0771 19.5727 11.8832 20.3238 13.36C20.6114 13.9254 21.0707 14.385 21.6358 14.673C21.1838 16.3075 20.3231 17.8001 19.1348 19.01C17.7457 18.1069 15.8875 18.5009 14.9844 19.89C14.6385 20.4221 14.4702 21.0502 14.5038 21.684C12.8617 22.1084 11.1386 22.1077 9.49682 21.682C9.58376 20.0274 8.31295 18.6156 6.65838 18.5287C6.02466 18.4954 5.39672 18.6639 4.86482 19.01L4.86481 19.01C4.27381 18.4069 3.76141 17.7316 3.33981 17L3.33982 17ZM8.99982 17.196C10.0654 17.8106 10.8667 18.797 11.2498 19.966C11.7488 20.013 12.2498 20.014 12.7488 19.967H12.7488C13.1322 18.7979 13.9338 17.8114 14.9998 17.197C16.065 16.5807 17.3203 16.3795 18.5248 16.632C18.8148 16.224 19.0648 15.789 19.2728 15.334V15.334C18.4522 14.4174 17.9989 13.2302 17.9998 12C17.9998 10.74 18.4698 9.563 19.2728 8.666C19.0633 8.21115 18.8123 7.77664 18.5228 7.368C17.3191 7.62031 16.0646 7.41948 14.9998 6.804C13.9342 6.18938 13.133 5.20298 12.7498 4.034C12.2508 3.987 11.7498 3.986 11.2508 4.033C10.8674 5.20215 10.0658 6.18856 8.99982 6.803H8.99982C7.9346 7.41932 6.6793 7.62052 5.47482 7.368L5.47482 7.368C5.18538 7.77629 4.93495 8.21087 4.72682 8.666H4.72682C5.54739 9.58256 6.0007 10.7698 5.99982 12C5.99982 13.26 5.52982 14.437 4.72682 15.334L4.72682 15.334C4.93629 15.7889 5.18736 16.2234 5.47682 16.632H5.47682C6.68054 16.3797 7.93503 16.5805 8.99982 17.196V17.196ZM11.9998 15C10.343 15 8.99982 13.6569 8.99982 12C8.99982 10.3432 10.343 9 11.9998 9C13.6567 9 14.9998 10.3432 14.9998 12C14.9998 13.6569 13.6567 15 11.9998 15ZM11.9998 13C12.5521 13 12.9998 12.5523 12.9998 12C12.9998 11.4477 12.5521 11 11.9998 11C11.4475 11 10.9998 11.4477 10.9998 12C10.9998 12.5523 11.4475 13 11.9998 13Z" fill="black"/>
</g>
<defs>
<clipPath id="clip0_227_1994">
<rect width="24" height="24" fill="white"/>
</clipPath>
</defs>
</svg>
