<svg width="24" height="24" viewBox="0 0 24 24" fill="none" xmlns="http://www.w3.org/2000/svg">
<path fill-rule="evenodd" clip-rule="evenodd" d="M4 5C3.44772 5 3 5.44772 3 6C3 6.55228 3.44772 7 4 7H20C20.5523 7 21 6.55228 21 6C21 5.44772 20.5523 5 20 5H4ZM3 12C3 11.4477 3.44772 11 4 11H13C13.5523 11 14 11.4477 14 12C14 12.5523 13.5523 13 13 13H4C3.44771 13 3 12.5523 3 12ZM10 18C10 17.4477 10.4477 17 11 17H20C20.5523 17 21 17.4477 21 18C21 18.5523 20.5523 19 20 19H11C10.4477 19 10 18.5523 10 18Z" fill="black"/>
</svg>
