<svg width="24" height="24" viewBox="0 0 24 24" fill="none" xmlns="http://www.w3.org/2000/svg">
<g clip-path="url(#clip0_239_1085)">
<path d="M10 7.2199L6.603 9.9999H3V13.9999H6.603L10 16.7799V7.2199ZM5.889 15.9999H2C1.73478 15.9999 1.48043 15.8945 1.29289 15.707C1.10536 15.5195 1 15.2651 1 14.9999V8.9999C1 8.73468 1.10536 8.48033 1.29289 8.29279C1.48043 8.10526 1.73478 7.9999 2 7.9999H5.889L11.183 3.6679C11.2562 3.60785 11.3451 3.56984 11.4391 3.55829C11.5331 3.54675 11.6284 3.56215 11.714 3.6027C11.7996 3.64325 11.872 3.70728 11.9226 3.78733C11.9732 3.86739 12.0001 3.96018 12 4.0549V19.9449C12.0001 20.0396 11.9732 20.1324 11.9226 20.2125C11.872 20.2925 11.7996 20.3566 11.714 20.3971C11.6284 20.4376 11.5331 20.453 11.4391 20.4415C11.3451 20.43 11.2562 20.392 11.183 20.3319L5.89 15.9999H5.889ZM19.406 20.1339L17.99 18.7179C18.938 17.8744 19.6964 16.8396 20.2152 15.6816C20.734 14.5236 21.0015 13.2688 21 11.9999C21.0012 10.666 20.7054 9.34855 20.1339 8.14327C19.5624 6.93799 18.7296 5.87513 17.696 5.0319L19.116 3.6119C20.3345 4.64345 21.3132 5.92838 21.9841 7.37709C22.6549 8.82581 23.0016 10.4034 23 11.9999C23 15.2229 21.614 18.1219 19.406 20.1339ZM15.863 16.5909L14.441 15.1689C14.9265 14.7956 15.3196 14.3156 15.5899 13.7661C15.8602 13.2166 16.0006 12.6123 16 11.9999C16 10.5699 15.25 9.3149 14.12 8.6079L15.559 7.1689C16.3165 7.72609 16.9321 8.45375 17.3562 9.29302C17.7802 10.1323 18.0008 11.0596 18 11.9999C18 13.8419 17.17 15.4899 15.863 16.5909Z" fill="black"/>
</g>
<defs>
<clipPath id="clip0_239_1085">
<rect width="24" height="24" fill="white"/>
</clipPath>
</defs>
</svg>
