<svg width="24" height="24" viewBox="0 0 24 24" fill="none" xmlns="http://www.w3.org/2000/svg">
<path fill-rule="evenodd" clip-rule="evenodd" d="M12 11C14.2091 11 16 9.20914 16 7C16 4.79086 14.2091 3 12 3C9.79086 3 8 4.79086 8 7C8 9.20914 9.79086 11 12 11ZM12 9C13.1046 9 14 8.10457 14 7C14 5.89543 13.1046 5 12 5C10.8954 5 10 5.89543 10 7C10 8.10457 10.8954 9 12 9Z" fill="black"/>
<path fill-rule="evenodd" clip-rule="evenodd" d="M12 11.9999C6.4686 11.9999 4 15.6323 4 17.9999C4 18.5522 3.55228 18.9999 3 18.9999C2.44772 18.9999 2 18.5522 2 17.9999C2 14.3675 5.5314 9.99994 12 9.99994C13.9955 9.99994 15.7139 10.412 17.1402 11.099C17.6378 11.3386 17.8469 11.9362 17.6072 12.4338C17.3676 12.9314 16.7699 13.1405 16.2724 12.9008C15.1351 12.3531 13.716 11.9999 12 11.9999Z" fill="black"/>
<path d="M20 14.0001H18V16.0001H16V18.0001H18V20.0001H20V18.0001H22V16.0001H20V14.0001Z" fill="black"/>
</svg>
