<svg width="16" height="16" viewBox="0 0 16 16" fill="none" xmlns="http://www.w3.org/2000/svg">
<path fill-rule="evenodd" clip-rule="evenodd" d="M1.53296 7.52864C1.79404 7.26829 2.21732 7.26829 2.4784 7.52864L5.15249 10.1953C5.41357 10.4557 5.41357 10.8778 5.15249 11.1381C4.89142 11.3985 4.46813 11.3985 4.20706 11.1381L1.53296 8.47145C1.27189 8.2111 1.27189 7.78899 1.53296 7.52864Z" fill="black"/>
<path fill-rule="evenodd" clip-rule="evenodd" d="M6.21241 8.19526C6.47348 7.93491 6.89677 7.93491 7.15784 8.19526L9.16341 10.1953C9.42448 10.4556 9.42448 10.8777 9.16341 11.1381C8.90234 11.3984 8.47905 11.3984 8.21798 11.1381L6.21241 9.13807C5.95133 8.87772 5.95133 8.45561 6.21241 8.19526Z" fill="black"/>
<path fill-rule="evenodd" clip-rule="evenodd" d="M10.5007 4.86189C10.7617 5.12224 10.7617 5.54435 10.5007 5.8047L5.15247 11.138C4.8914 11.3984 4.46811 11.3984 4.20704 11.138C3.94596 10.8777 3.94596 10.4556 4.20704 10.1952L9.55522 4.86189C9.8163 4.60154 10.2396 4.60154 10.5007 4.86189Z" fill="black"/>
<path fill-rule="evenodd" clip-rule="evenodd" d="M14.5116 4.86189C14.7727 5.12224 14.7727 5.54435 14.5116 5.8047L9.16346 11.138C8.90238 11.3984 8.4791 11.3984 8.21802 11.138C7.95695 10.8777 7.95695 10.4556 8.21802 10.1952L13.5662 4.86189C13.8273 4.60154 14.2506 4.60154 14.5116 4.86189Z" fill="black"/>
</svg>
