<svg width="16" height="16" viewBox="0 0 16 16" fill="none" xmlns="http://www.w3.org/2000/svg">
<path fill-rule="evenodd" clip-rule="evenodd" d="M3.52851 7.52864C3.78886 7.26829 4.21097 7.26829 4.47132 7.52864L7.13799 10.1953C7.39834 10.4557 7.39834 10.8778 7.13799 11.1381C6.87764 11.3985 6.45553 11.3985 6.19518 11.1381L3.52851 8.47145C3.26816 8.2111 3.26816 7.78899 3.52851 7.52864Z" fill="black"/>
<path fill-rule="evenodd" clip-rule="evenodd" d="M12.4714 4.86189C12.7318 5.12224 12.7318 5.54435 12.4714 5.8047L7.13807 11.138C6.87772 11.3984 6.45561 11.3984 6.19526 11.138C5.93491 10.8777 5.93491 10.4556 6.19526 10.1952L11.5286 4.86189C11.7889 4.60154 12.2111 4.60154 12.4714 4.86189Z" fill="black"/>
</svg>
