<svg width="16" height="16" viewBox="0 0 16 16" fill="none" xmlns="http://www.w3.org/2000/svg">
<g opacity="0.5">
<path fill-rule="evenodd" clip-rule="evenodd" d="M15.2127 8C14.5854 4.58667 11.5947 2 8.00002 2C4.40535 2 1.41402 4.58667 0.787354 8C1.41469 11.4133 4.40535 14 8.00002 14C11.5947 14 14.586 11.4133 15.2127 8ZM13.8514 8C13.2279 10.7298 10.8001 12.6661 8.00002 12.6667L8.00004 12.6667C5.19996 12.6661 2.77216 10.7298 2.14871 8C2.66327 5.75703 4.41471 4.00558 6.65769 3.49102C9.88927 2.74966 13.11 4.7684 13.8514 8ZM8.00002 11C6.34317 11 5.00002 9.65685 5.00002 8C5.00002 6.34315 6.34317 5 8.00002 5C8.55958 5 9.08337 5.1532 9.53171 5.41994C9.36473 5.36377 9.18593 5.33333 9.00002 5.33333C8.07955 5.33333 7.33335 6.07953 7.33335 7C7.33335 7.92047 8.07955 8.66667 9.00002 8.66667C9.92049 8.66667 10.6667 7.92047 10.6667 7C10.6667 6.81409 10.6362 6.63529 10.5801 6.46831C10.8468 6.91666 11 7.44044 11 8C11 9.65685 9.65687 11 8.00002 11ZM10.5801 6.46831C10.4143 5.97552 10.0245 5.5857 9.53171 5.41994C9.96256 5.67627 10.3237 6.03746 10.5801 6.46831Z" fill="black"/>
</g>
</svg>
