<svg width="16" height="16" viewBox="0 0 16 16" fill="none" xmlns="http://www.w3.org/2000/svg">
<path fill-rule="evenodd" clip-rule="evenodd" d="M2 5.66667C2 5.29847 2.29848 5 2.66667 5C5.3281 5 6.89307 5.08147 7.96933 5.30568C9.10567 5.54242 9.69707 5.93948 10.4 6.46667C10.4134 6.47671 10.4264 6.48726 10.439 6.49828C11.1291 7.10213 11.8657 7.8316 12.4216 8.8738C12.98 9.92087 13.3333 11.2397 13.3333 13C13.3333 13.3682 13.0349 13.6667 12.6667 13.6667C12.2985 13.6667 12 13.3682 12 13C12 11.427 11.6867 10.3291 11.2451 9.5012C10.8053 8.67647 10.2158 8.07633 9.5798 7.5182C8.9608 7.05473 8.55173 6.78899 7.69733 6.61099C6.7736 6.41853 5.33857 6.33333 2.66667 6.33333C2.29848 6.33333 2 6.03486 2 5.66667Z" fill="black"/>
<path fill-rule="evenodd" clip-rule="evenodd" d="M2.19526 6.13807C1.93491 5.87772 1.93491 5.45561 2.19526 5.19526L4.19526 3.19526C4.45561 2.93491 4.87772 2.93491 5.13807 3.19526C5.39842 3.45561 5.39842 3.87772 5.13807 4.13807L3.13807 6.13807C2.87772 6.39842 2.45561 6.39842 2.19526 6.13807Z" fill="black"/>
<path fill-rule="evenodd" clip-rule="evenodd" d="M2.19526 5.19526C2.45561 4.93491 2.87772 4.93491 3.13807 5.19526L5.13807 7.19527C5.39842 7.4556 5.39842 7.87773 5.13807 8.13807C4.87772 8.3984 4.45561 8.3984 4.19526 8.13807L2.19526 6.13807C1.93491 5.87772 1.93491 5.45561 2.19526 5.19526Z" fill="black"/>
</svg>
