<svg width="24" height="24" viewBox="0 0 24 24" fill="none" xmlns="http://www.w3.org/2000/svg">
<path fill-rule="evenodd" clip-rule="evenodd" d="M19.2208 15.4974L20.0008 15.1448C20.424 14.9407 20.8882 14.7053 21.3936 14.4385L21.9169 14.1827C22.4329 13.9111 22.6497 13.4041 22.5674 12.6617C22.5445 12.4547 22.4687 12.2238 22.3401 11.9687C22.2116 11.7137 22.008 11.6364 21.7294 11.7368L18.888 13.098C18.8845 12.6649 18.8877 12.1906 18.8974 11.675C18.9622 7.03162 18.9325 4.15012 18.8084 3.03032C18.7773 2.75032 18.7365 2.58352 18.686 2.52962C18.5039 2.39472 18.0785 2.47832 17.4099 2.78052C16.7307 3.08762 16.3681 3.38572 16.3222 3.67492C16.2982 5.87132 16.2809 8.07762 16.2702 10.2936C16.2615 13.6334 16.2862 15.565 16.3442 16.0884C16.3941 16.5387 17.353 16.3417 19.2208 15.4974ZM12.127 18.7617C10.868 19.2669 10.0196 19.0784 9.58189 18.1963C9.14419 17.3141 8.86329 16.3132 8.73919 15.1934C8.68249 14.6822 8.64829 14.1225 8.63659 13.5143C8.58149 11.6092 8.78759 9.89918 9.25489 8.38428C9.72219 6.86928 10.5819 5.82878 11.8342 5.26268L11.8661 5.24828C13.1278 4.76738 13.9792 4.95768 14.4201 5.81918C14.8611 6.68068 15.1417 7.65308 15.2617 8.73638C15.3211 9.27188 15.352 9.85228 15.3544 10.4775C15.4818 14.9445 14.406 17.7059 12.127 18.7617ZM12.0506 16.1121C12.6608 15.7852 12.9355 14.2422 12.8749 11.4833C12.8643 10.7851 12.828 10.1561 12.766 9.59618C12.7295 9.26758 12.6601 8.84198 12.5576 8.31958C12.4551 7.79708 12.23 7.57618 11.8823 7.65668C11.5427 7.81018 11.311 8.33348 11.1871 9.22668C11.0632 10.1199 11.0129 11.1236 11.0361 12.2379C11.048 12.9482 11.0849 13.5834 11.147 14.1433C11.1848 14.4841 11.2579 14.9175 11.3664 15.4437C11.4749 15.9698 11.7029 16.1926 12.0506 16.1121ZM6.67671 21.168L5.89671 21.5206C4.02881 22.365 3.07001 22.562 3.02001 22.1116C2.96201 21.5883 2.93741 19.6566 2.94601 16.3168C2.95671 14.1008 2.97401 11.8946 2.99801 9.69808C3.04401 9.40888 3.40661 9.11078 4.08581 8.80378C4.75441 8.50148 5.17971 8.41788 5.36181 8.55288C5.41241 8.60668 5.45321 8.77358 5.48421 9.05348C5.60831 10.1733 5.63801 13.0549 5.57321 17.6982C5.56351 18.2138 5.56041 18.6882 5.56381 19.1212L8.40521 17.76C8.68381 17.6597 8.88741 17.737 9.01601 17.992C9.14461 18.247 9.22031 18.478 9.24331 18.6849C9.32561 19.4273 9.10871 19.9344 8.59281 20.206L8.06951 20.4617C7.56411 20.7285 7.09981 20.9639 6.67671 21.168Z" fill="black"/>
</svg>
